<svg id="_7_white_cap_mountain" data-name="7_white cap mountain" xmlns="http://www.w3.org/2000/svg" viewBox="0 0 2680.14 2010"><defs><style>.cls-1{fill:#f7f6f5}</style></defs><path style="fill:#a1bdef" d="M2.03 956.34 0 2010h2677.39L2680 948.05l-169.57 21.33-193.89-43.83h-99.44l-208.62-84.17-185.98 42-87.15-39.89-182.82 85.89-263.64-36.77-86.39-25.07-150.36 40.25-190.6 48.55-183.51 48.54-137.39-27.5-173.98-4-79.31-19.41-59.98 8.17-225.34-5.8z"/><path class="cls-1" d="m1015.22 963.6-5.91 6.09 4.16 3.22 6.4-4.15 4.78-6.39-3.14-2.38-6.29 3.61zM996.05 981.47l-6.59 5.43.23.3 8.22-4.33 6.06-5.74-.48-.47-7.44 4.81zM866.38 1022.74l-38.79 20.24.05.1 36.82-16.49 14-7.74 9.56-4.32.37-2.84-8.53 1.7-13.48 9.35zM1014.87 944.88l10.87-5.28 1.96-.45-.92-4.48-5.02-1.78-14.98 8.5 4.07 4.67 4.02-1.18zM1991.47 977.33l-13.1.97-13.45.21-2.14 5.1 14.22 3.79 16.33-3.02-1.86-7.05zM706.58 1027.82l-7.32 3.85-.74 5.76 6.51 1.71 4.63-2.52 1.94-.82 1.97-.8.27-.13.04-.02 3.06-4.01-4.17-4.17-6.19 1.15zM315.21 958.16l-26.89-9.6-12.54 2.04-124.4 5.19-91.99-6L0 944.93v30.5l33.39-7.64 56 6 34 4 29.99-4 73.99-12 31.17 6.38 18.9-10.99 11.79 4.59 23.23 6.37 23.93 7.2 20.67 4.14.9-2.21-17.65-10.02-25.1-9.09zM479.16 1029.81l11.86.28 11.39-.56 1.82-6.9-25.07-.11v7.29zM685.61 1042.07l-1.78.97.53 4.02 2.77-.2.42-.1.52-.09.56-.04 2.6-2.6-2.6-2.6-3.02.64zM464.45 1030.68l-4.36 4.35 4.36 4.36 2.9-1.13 1.69-3.2-1.06-2.57-3.53-1.81zM631.66 1062.66l-.63.25-2.02.19-3.8 1.5 1.42 5.25 4.36.2.82.19.2.05 2.9-.38 2.1-1.91-.61-4.73-4.74-.61zM626.95 1046.26l-3.4-1.02-.95-1.29-7.16.93-.08.17-10.8 4.08 2.15 7.8 1.7-.38 3.13 5.74 17.59-7.76-2.18-8.27zM1997.67 991.63l-18.87 3.17v2.8l18.43-.83 10.58-1.71 5.62-2.63-.52-1.98-15.24 1.18zM2214.3 954.46v2.48l17.17 2.44 14.99-1.86v-3.63l-14.99-1.87-17.17 2.44zM2191.85 985.85l-32.09-14.69-1.64 1.65 31.33 21.74 2.4-8.7zM2220.43 1013.99l.22.51 23.04-4.29-1.1-4.01-22.16 7.79zM2253.48 1012.12l-.14 1.1 10.9 3.17 11.9 4.44.54-.95-10.02-6.74-13.18-1.02zM2292.32 1024.05l-1.39 1.13-.07.02v2l.06.02.87.9 2.17.34 2.92.11v-4.74l-2.92.11-1.64.11zM2014.79 1000.04v1.32l21.66 3.35 20.72 4.37.84-1.11-18.09-8.21-25.13.28zM2080.18 1019.58l-12.25-4.83-.96 1.65 10.95 7.03 5.35 1.73 6.84 2.72.19-.32-5.82-4.5-4.3-3.48zM2107.72 1027.79l-2.67.99v.84l1.53.65 3.5.85 6.27.76.63-1.54-5.58-2.64-3.68.09zM2130.48 1032.36l-1.32-.08v2.84l1.32-.08.86-.32 1.18-.41v-1.22l-1.18-.41-.86-.32zM2171.71 999.31l34.57 12.27 2.07-7.51-35.7-8.23-.94 3.47z"/><path class="cls-1" d="m2480.45 945.03-73.99-10-99.99-22-55.99-10-42 2-49.99-20-149.98-44h-99.99l-123.99-38-48 2-87.99 46-48 16-77.99-2h-71.99l-71.99 16-55.99-10-107.99-26-44 20-121.99 34-107.99 16-61.99 32-109.99 32-91.99 12-135.99-14-77.99-24-63.99 8-62.24-10.38-15.75 4.38 46 18 81.99 24 24-8 8 26 65.99-4 18 16 32 22 55.99-26 48-14 36-8-14 24 32-10 48-30 26 30 16-54 75.99-10 1.54.09-8.21 8.25L898.6 979l.08.08 18.88-16.12 12.47-11.4 9.01.5-3.2 2.63-28.18 26.36v1.93l-6.61 10.43-4.37 6.52-1.35 6.02.32.42 6.65-.83 2.72-2.14 5.19.19 17.42-20.23.73-2.41 6.65-3.6 19.69-13.86 19.34-16.03 5.53-5.89 21.08-10.54 51.99-6-7.68 14.26-.72-.45-11.9 3.38-12.21 4.24-1.48 2.57.1 1 2.11 2.77.84.11 1.31 1.95 1.02 1.08.12.05 2.44 2.08 1.23.38 3.68 1.72 22.18-16.5 3.01-3.93 29.94-18.71 20-12 55.99-12h38l-69.99 54-8 36-24 18 38-18 18-24 36-18 40-4 4 14 42-4 46-30 18 2 42 4 30 26 8 36 28-22 28-18 10-20 28-8 2 18 36-10 40 4-18 48 46-34 34-20 51.99-34 49.99-14-2 28 22-22 16-6 30 4 44 28 46 16 20 14 14 22s28 4 36 8-18-18-18-18l-14-32-22-22-10-10 48 4 34 24 36 6 99.99 26 32 16 26 18-26-32s-26-18-32-18-26-16-26-16l32-4 55.99 14 29.72 9.01-8.23.83-14.8-.1-2.76-2.16-31.91-7.43-32.04-7.11-1.14 1.97 27.68 12.98 34.87 8.77 4.71-1.37 25.79 1.09 16.55-.18 6.38 2.02 6.32 3.08 2.2-2.2 2.63.8 48-4 40 20 67.99 8 34-8 55.99 6 34 4 30-4 73.99-12h31.57v-18l-107.56 12-91.99-6ZM930.83 967.97l-3.83 2.41 4.41-3.35-.58.94Zm19.78-14.84.2-.42.3.02-.08.07-.42.34Z"/></svg>