<svg id="_8_Sky" data-name="8_Sky" xmlns="http://www.w3.org/2000/svg" viewBox="0 0 2680.14 2010"><defs><style>.cls-4{fill:#c8d5d6}</style></defs><path d="M2680 2010c-24.04 0-2680-3.86-2680-3.86V0h2680v2010Z" style="fill:#a4bbf1"/><path style="fill:#5b87e4" d="M2680 485.39 0 641.44V0h2679.99v485.39h.01z"/><path d="M2680 429.73S1038.12 557.71 745.39 578.12C452.66 598.52.57 608.78.57 608.78v100.85l711.09-19.15-678.94 32.85L0 723.29v40.12l526.16-20.35 2049.13 2.2L10.42 861.33v19.28s684.46-53.26 985.4-76.78C1296.76 780.32 2680 756.31 2680 756.31v-66.76c-234.17 49.94-1906.25 34.76-1906.25 34.76S2456.52 634.74 2680 651.87v-42.84L951.73 641.86 2680 568.79v-38.57L405.09 654.59 2680 507.44v-77.7Z" style="fill:#83a5eb"/><path d="M2680 410.79 0 560.39v19.29s757.41-66.54 989.36-89.53C1221.32 467.16 2680 430.08 2680 430.08v-19.29Z" style="fill:#7fa3e0"/><path d="M201.88 693.69c0-81.31 65.91-147.22 147.21-147.22S496.3 612.38 496.3 693.69 430.39 840.9 349.09 840.9s-147.21-65.91-147.21-147.21Z" style="fill:#fff4d1"/><path class="cls-4" d="M471.45 611.81c-40.87 3.86-77.95 6.84-107.67 8.38-55.48 2.87-104.9 5.25-146.14 7.16-3.53 6.99-6.53 14.29-8.92 21.87l271.64-22.24c-2.67-5.25-5.65-10.31-8.91-15.17ZM482.22 630.78l-273.66 18.94a147.16 147.16 0 0 0-5.06 22.1l141.15-4.39-141.64 7.95c-.66 5.33-1.03 10.76-1.11 16.25l37.49-2.09 256.86.38c-.06-2.47-.19-4.93-.37-7.37-68.26-.15-116.01-.89-116.01-.89s47.26-4.24 114.84-9.6a145.81 145.81 0 0 0-6.06-25.3l-7.8.24 7.71-.53c-.16-.48-.33-.96-.49-1.43-1.71-4.87-3.67-9.62-5.85-14.24ZM448.98 585.56l-214.76 16.07c-1.46 1.82-2.88 3.68-4.26 5.58 70.55-6.56 154.42-14.17 221.12-19.67-.69-.67-1.39-1.32-2.1-1.97ZM494.95 713.71 206.84 731.7c.46 1.73.95 3.45 1.47 5.16 83.37-6.9 194.75-15.64 286.35-21.12.1-.67.19-1.35.28-2.03Z"/></svg>